# xmcd CD database file
#
# Track frame offsets:
#	150
#	22449
#	39201
#	51440
#	64830
#	82725
#	98867
#	121584
#	131812
#	143933
#	154045
#	171035
#	187362
#	198547
#	211032
#
# Disc length: 2984 seconds
#
# Revision: 0
# Processed by: cddbd v1.5.2PL0 Copyright (c) Steve Scherf et al.
# Submitted via: CDex 1.79
#
DISCID=d60ba60f
DTITLE=varios - talent blues condensed - cd2
DYEAR=1900
DGENRE=Blues
TTITLE0=early on sunday - roberto ciotti
TTITLE1=my first wife left me - john lee hooker
TTITLE2=shaggy dog - lightnin hopkins
TTITLE3=that's all right - lightnin slim
TTITLE4=money talks -greeg a smith
TTITLE5=cold and lonesome - jimmy  reed
TTITLE6=i'll be gone - lightnin hopkins
TTITLE7=rx for the blues - mike bloomfield
TTITLE8=rooster blues - lightnin slim
TTITLE9=little lonely girl - memphis slim
TTITLE10=mona (i need you baby) - Bo Diddley
TTITLE11=Lonesome Blues - Mississippi John Hurt
TTITLE12=Bom Bom - John Lee Hooker
TTITLE13=Rocking Chair Blues - Ray Charles
TTITLE14=Only Fools Have Fun - Memphis Slim
EXTD=
EXTT0=
EXTT1=
EXTT2=
EXTT3=
EXTT4=
EXTT5=
EXTT6=
EXTT7=
EXTT8=
EXTT9=
EXTT10=
EXTT11=
EXTT12=
EXTT13=
EXTT14=
PLAYORDER=
